/* XPM */
static char *cfe9e2bf1ed04a20b869e922950add23yFdr1ffOAxuGPahA[] = {
/* columns rows colors chars-per-pixel */
"32 32 202 2 ",
"   c None",
".  c #0C0411",
"X  c #110B16",
"o  c #183C1F",
"O  c #293812",
"+  c #2E2633",
"@  c #38303D",
"#  c #1A5A0A",
"$  c #2C5013",
"%  c #31521A",
"&  c #284816",
"*  c #36641A",
"=  c #1A4320",
"-  c #1D5322",
";  c #1E5A24",
":  c #205E24",
">  c #3A5A25",
",  c #216325",
"<  c #236D26",
"1  c #3D6524",
"2  c #247426",
"3  c #257C26",
"4  c #257428",
"5  c #267B29",
"6  c #2B7E27",
"7  c #2C7E3A",
"8  c #6A5F0F",
"9  c #7A5E3A",
"0  c #437322",
"q  c #447229",
"w  c #496F31",
"e  c #4E7C32",
"r  c #477E37",
"t  c #537B3D",
"y  c #53783A",
"u  c #78693E",
"i  c #67733E",
"p  c #696E34",
"a  c #3C3641",
"s  c #59515E",
"d  c #596949",
"f  c #576954",
"g  c #547C4F",
"h  c #647343",
"j  c #687745",
"k  c #607751",
"l  c #72725E",
"z  c #717642",
"x  c #A03910",
"c  c #9B3E34",
"v  c #DA1B00",
"b  c #C1293F",
"n  c #9F700C",
"m  c #BE7E00",
"M  c #964E3B",
"N  c #9A563E",
"B  c #8A543B",
"V  c #A44239",
"C  c #AC473D",
"Z  c #B9463E",
"A  c #8D613F",
"S  c #EC7000",
"D  c #A14F40",
"F  c #A15A47",
"G  c #9A6745",
"H  c #BA7456",
"J  c #C34C46",
"K  c #17BB19",
"L  c #17B419",
"P  c #18A216",
"I  c #268326",
"U  c #278229",
"Y  c #29862B",
"T  c #298B2B",
"R  c #368B2D",
"E  c #2B942C",
"W  c #2C9B2D",
"Q  c #219524",
"!  c #339D2F",
"~  c #2D8D36",
"^  c #2D843A",
"/  c #2E8B3C",
"(  c #2E9135",
")  c #2F9D32",
"_  c #2F9439",
"`  c #2F9939",
"'  c #30953D",
"]  c #319B3B",
"[  c #3D9634",
"{  c #14AA29",
"}  c #17BB2B",
"|  c #11B63B",
" . c #26A629",
".. c #2DA22D",
"X. c #2EAA2E",
"o. c #23AC29",
"O. c #30AC2E",
"+. c #22B62A",
"@. c #26BB2B",
"#. c #2BB42E",
"$. c #30B12D",
"%. c #31B82F",
"&. c #2FA231",
"*. c #30A731",
"=. c #32AC33",
"-. c #32A13A",
";. c #2BB433",
":. c #28B836",
">. c #32B432",
",. c #34BB33",
"<. c #3AB830",
"1. c #5F8A1C",
"2. c #768816",
"3. c #7FA11E",
"4. c #68A71D",
"5. c #428B36",
"6. c #4C873A",
"7. c #488739",
"8. c #55853D",
"9. c #4C9528",
"0. c #649720",
"q. c #4AAD2B",
"w. c #1BCF2F",
"e. c #1FC13A",
"r. c #15D23E",
"t. c #25C32D",
"y. c #29C42E",
"u. c #28CA2F",
"i. c #25D42F",
"p. c #2DC532",
"a. c #2ECA32",
"s. c #25CB3B",
"d. c #35C334",
"f. c #36CB35",
"g. c #3ACE3B",
"h. c #37C738",
"j. c #28D537",
"k. c #34D135",
"l. c #38D336",
"z. c #39D638",
"x. c #39D83A",
"c. c #3AE237",
"v. c #35E738",
"b. c #47C408",
"n. c #319A41",
"m. c #01A743",
"M. c #5A8541",
"N. c #598745",
"B. c #5F9144",
"V. c #5C994B",
"C. c #559E58",
"Z. c #638244",
"A. c #628C46",
"S. c #638C4A",
"D. c #6B8549",
"F. c #728B4F",
"G. c #629143",
"H. c #65934A",
"J. c #69964C",
"K. c #6B9C4D",
"L. c #669948",
"P. c #638E50",
"I. c #6D9C53",
"U. c #699A54",
"Y. c #759553",
"T. c #759B53",
"R. c #7E9C5B",
"E. c #799758",
"W. c #7A8A53",
"Q. c #5DA44E",
"!. c #55A84C",
"~. c #6AA04F",
"^. c #69A64D",
"/. c #6AA452",
"(. c #63A951",
"). c #73A355",
"_. c #78AB59",
"`. c #718664",
"'. c #759864",
"]. c #639A63",
"[. c #0FD843",
"{. c #8C900F",
"}. c #BF9F00",
"|. c #AA9600",
" X c #A8A608",
".X c #929D3F",
"XX c #B2D211",
"oX c #DEC500",
"OX c #ECD100",
"+X c yellow",
"@X c #F7EA00",
"#X c #809E5A",
"$X c #B6A358",
"%X c #84937C",
"&X c #A7B69D",
"*X c #9E9BA1",
"=X c #B9B0BE",
"-X c #BDC3BA",
";X c #D9D8DB",
":X c #D1C9D0",
">X c #E5D5E0",
",X c #F6F1F9",
/* pixels */
"                        _ / / ] ) _ _ /                         ",
"                  n.] ~ Y ,.X.3 E W 4 W &._ n.                  ",
"              n.~ T U 2 U l.,.; 2 Y < f.l.3 6 ] n.              ",
"            ^ ( 2 W U &.5 >.d.;.:.=.W ,.,.E W 3 ( /             ",
"          ] E 2 Y 4 ;.j.<.:.s.0.1.j.=.,.;.,.T , ..O.^           ",
"        ^ X.c.U >.;.q.9.[.0 m.4.{.m.8 | 0.0.s.( 5 X.../         ",
"      / W 3 T l.>.k.=.{.q.n 2.XX@X2.|. X3.| d.d.E T T Y ]       ",
"    ' ~ E 5 W d.>.>.s.:.}.|.oXS v +X$XH b.[.<.,.z.W 5 >.4 n.    ",
"    ~ 3 U ) z.>.,.,.d.{ e B./.d x OX.Xf 7.W p.,.,.d.>.T 3 ~     ",
"  / *.l.U >.d.,.>.f. .h ).U.N.C.!.y V.).E.j ..a.>.,.>.=.l.&./   ",
"  ~ ,.,.h.,.>.,.d.+.t R.8.j S.A.S.g J.8.8.W.r t.f.,.,.d.,.d.~   ",
"  ) d.,.,.,.,.,.i.T W.L.G._.K.G.e & w T.8.6.e %  .z.,.>.,.d.)   ",
"/ *.d.,.,.,.,.p.Q Z.T./.).1 > f `.'.> % 1 f f l O P g.,.>.d.X./ ",
"/ >.,.,.,.>.f.W j T.K.A.& %X*X+ a :X,X%X-Xs @ :X>Xk K ,.,.d.$./ ",
"( ,.,.,.,.d.+.t #XJ.K.G.q &X=X. X ;X;X*X,X+ . *X:X].K ,.,.,.,.( ",
"( ,.,.,.,.a.E D.I.J.J.I._.0 y k `.F.1 0 P.E.Y.'.# L h.,.,.,.,.( ",
"( ,.h.h.>.y.5.E.J.J.J.J.H.).L.B.t 1 ~./.e 8.D.6 i.d.>.,.d.,.,.( ",
"( d...E d.@.6.Y.L.J.J.J.K.^./.H.S.).K.J.K.H.Y.8.#.d.,.>.>.d.d.~ ",
"] T 3 ,.g.o.8.T.K.J.J.K.V.Z.B.V.(.Q.(./././.(.Y.R y.d.*., E W _ ",
"' T W < W y.8.Y.J.J./.A.N C M A 9 i i h Z.Z.j F B } l.&.; 5 T ] ",
"  =.E - ,.j.r E.L.K.L.h C N B V Z Z C V c V D b R j.d.U , ,.=.  ",
"  ' O.E T ;.#.h E.).J.t N.V.G.D.z u A G G D D p } x.&.< T W ]   ",
"  ] E 2 ; 4 v...6.Z.F.F.Y.E.E.).I.I.H.P.N.Y { w.h.>.2 ; U E '   ",
"    -.I >.E , v.@. .W [ 5.5.7.6.6.6.5.[ &.u.f.,.l.>.; E d.~     ",
"    / =.,.E U < g.l.p.y.y.y.y.@.@.@.y.y.f.>.d.f.T >.>...=./     ",
"      / *.>.5 4 < ,.,.,.,.,.,.,.,.,.,.,.,.,.d.4 = W c.%.7       ",
"        ' W E W 5 T l.d.d.g.d.d.,.f.d.d.,.f.3 *.: &.d.^         ",
"          / $.E 5 W d.5 ..T E ,.d.) E T 4 l.E 3 O.$.7           ",
"            / ) W c.T o ; , W 2 , - T W , Y c.W ) /             ",
"              / ' ) %.X.T < E < , 2 4 >.W =.=.] /               ",
"                  n.` =.,...W %.d.,.W ) >.' ^                   ",
"                        ^ ] -.` _ ` ` /                         "
};
