/* XPM */
static char *_d16d830da6c49e2b4e2333adf8e87b24vpMfu2klpF6tvql[] = {
/* columns rows colors chars-per-pixel */
"64 64 244 2 ",
"   c None",
".  c black",
"X  c #09080A",
"o  c #121717",
"O  c #100D18",
"+  c #15271B",
"@  c #17341D",
"#  c #183C1E",
"$  c #18371D",
"%  c #1A3309",
"&  c #283614",
"*  c #2D2D2F",
"=  c #56330C",
"-  c #6E372C",
";  c #6E1D0C",
":  c #19421F",
">  c #1A4C1B",
",  c #1C5316",
"<  c #2A5519",
"1  c #34591E",
"2  c #254813",
"3  c #39651B",
"4  c #226F1E",
"5  c #1A4620",
"6  c #1C4C21",
"7  c #1D5422",
"8  c #1F5A23",
"9  c #215E24",
"0  c #2D5D25",
"q  c #385627",
"w  c #315230",
"e  c #1C6224",
"r  c #0B7A33",
"t  c #216425",
"y  c #236B26",
"u  c #2D6A28",
"i  c #39672A",
"p  c #247326",
"a  c #257528",
"s  c #267B28",
"d  c #2B7C2C",
"f  c #287A27",
"g  c #37722C",
"h  c #297333",
"j  c #2B7D35",
"k  c #2C7C39",
"l  c #2B7638",
"z  c #2F6D33",
"x  c #1C711A",
"c  c #515617",
"v  c #5B7D17",
"b  c #776812",
"n  c #455A33",
"m  c #5A5B33",
"M  c #4D522D",
"N  c #7E4B34",
"B  c #685634",
"V  c #725435",
"C  c #436C2A",
"Z  c #4B6A36",
"A  c #486534",
"S  c #556739",
"D  c #4D7339",
"F  c #487737",
"G  c #51743B",
"H  c #567B3E",
"J  c #58713A",
"K  c #4B7B2D",
"L  c #6C653A",
"P  c #76560C",
"I  c #423848",
"U  c #474748",
"Y  c #58555B",
"T  c #597E41",
"R  c #5A7243",
"E  c #50724C",
"W  c #677847",
"Q  c #656F55",
"!  c #6E6E68",
"~  c #5E5762",
"^  c #AF0203",
"/  c #8B2D32",
"(  c #CE0000",
")  c #E62A00",
"_  c #8C710B",
"`  c #B87700",
"'  c #AA7403",
"]  c #854D37",
"[  c #9A4839",
"{  c #8A523A",
"}  c #96553D",
"|  c #A34C3D",
" . c #A3523E",
".. c #B3453D",
"X. c #CF7404",
"o. c #A65841",
"O. c #B75645",
"+. c #B86449",
"@. c #8E6C48",
"#. c #CD654E",
"$. c #D66952",
"%. c #D26F53",
"&. c #F0675A",
"*. c #E15B54",
"=. c #128D1D",
"-. c #2B971E",
";. c #1D9B23",
":. c #1B9623",
">. c #0D9232",
",. c #278329",
"<. c #29842B",
"1. c #2A8C2B",
"2. c #268726",
"3. c #2B942D",
"4. c #2D9B2E",
"5. c #219525",
"6. c #399629",
"7. c #2C8333",
"8. c #2D8B32",
"9. c #2D843A",
"0. c #2E8C3C",
"q. c #2E9232",
"w. c #2F923E",
"e. c #2D9B33",
"r. c #30953E",
"t. c #319C3E",
"y. c #309B34",
"u. c #308E3C",
"i. c #1CA524",
"p. c #1BB727",
"a. c #11AF3B",
"s. c #2EA32F",
"d. c #2DAB2D",
"f. c #25BC2C",
"g. c #24B52A",
"h. c #31B12F",
"j. c #2FA530",
"k. c #2FA931",
"l. c #31A432",
"z. c #31AC31",
"x. c #32A23F",
"c. c #28B935",
"v. c #33B532",
"b. c #33BA33",
"n. c #39BF36",
"m. c #32A92F",
"M. c #6E8B14",
"N. c #48833E",
"B. c #4E8E2C",
"V. c #5E8922",
"C. c #17C42B",
"Z. c #16C43D",
"A. c #1CD537",
"S. c #25C52A",
"D. c #2ECB33",
"F. c #2AC737",
"G. c #35C434",
"H. c #36CB35",
"J. c #38CD37",
"K. c #39CC39",
"L. c #39C636",
"P. c #2ED438",
"I. c #34D236",
"U. c #38D236",
"Y. c #39DA36",
"T. c #36D338",
"R. c #39D539",
"E. c #3BDC39",
"W. c #35D83A",
"Q. c #3AE337",
"!. c #3CE33A",
"~. c #3DEC3B",
"^. c #37E73B",
"/. c #3CF13D",
"(. c #28E63B",
"). c #41F93E",
"_. c #319E40",
"`. c #32A240",
"'. c #01B745",
"]. c #4A8A41",
"[. c #5C8442",
"{. c #5E8946",
"}. c #549A49",
"|. c #498258",
" X c #628C46",
".X c #6C844B",
"XX c #668A4A",
"oX c #66944A",
"OX c #69974C",
"+X c #6B9A4D",
"@X c #659E4E",
"#X c #778D52",
"$X c #6E9E50",
"%X c #619C5D",
"&X c #779955",
"*X c #708F54",
"=X c #5CA24E",
"-X c #54A24C",
";X c #54AB57",
":X c #69A549",
">X c #6FA150",
",X c #68A854",
"<X c #72A452",
"1X c #75AA55",
"2X c #7CAB59",
"3X c #79A857",
"4X c #77AE55",
"5X c #7D8378",
"6X c #768C69",
"7X c #69B862",
"8X c #0DCE43",
"9X c #27E743",
"0X c #889117",
"qX c #B49004",
"wX c #BBAB04",
"eX c #A5873C",
"rX c #FA9E00",
"tX c #CDAD04",
"yX c #F0B000",
"uX c #84C400",
"iX c #FFD901",
"pX c #EFC501",
"aX c #FFE700",
"sX c #FFF300",
"dX c #FFFD00",
"fX c #D9CE02",
"gX c #819C59",
"hX c #83A55D",
"jX c #83927B",
"kX c #BBAB4F",
"lX c #7C7980",
"zX c #1517FF",
"xX c #5D4BC2",
"cX c #90938D",
"vX c #95A18E",
"bX c #A1AA9C",
"nX c #B1AEB3",
"mX c #BDB3C2",
"MX c #CFBAD3",
"NX c #D1CBD4",
"BX c #FFFEFF",
"VX c #FEF5FF",
"CX c #ECE4F1",
"ZX c #EED2EF",
/* pixels */
"                                                    t.t.r.0.0.9.0.0.0.w.t.t.                                                    ",
"                                            t.r.r.0.k 7.j y.3.y.y.8.y.8.r.r.r.9.r.t.                                            ",
"                                        _.k 9.t.d ,.z.v.H.2.h.b.3.U.2.b.p 7 s y.7.k k _.                                        ",
"                                  `.u.k q.z.l.y p m.U.b.R.p 1.y 7 v.y m.e m.1.H.b.j.y.e.9.0.`.                                  ",
"                                r.0.y.3.p 1.h.8 z.1.v.b.G.v.8 7 ,.t v.4.> <.v.G.b.H.s ,.j.q.k w.                                ",
"                            x.k y.y 1.s.y p ,.<.7 4.J.b.b.W.@ 3.y : ~.7 3.z.m.G.b.G.z.: 7 s.b.7.9._.                            ",
"                          _.9.z.p a z.z.y t G.p s s.3.G.b.G.3.L.3.4.E.s 8 <.G.b.b.J.4.a H.z.8 2.l.h _.                          ",
"                      `.9.8.s H.s s p v.,.y ~.m.8 y j.L.b.v.R.a.Z.R.v.J.4.1.b.n.b.U.6 1.).s 1.a s.U.h k `.                      ",
"                    `.9.8.,.p y k.# 4.J.s 1.G.G.U.R.H.b.b.F.`.M.0Xs.G.v.T.W.b.b.b.c.3.H.j.+ 1.8 m.d.3.8.9.`.                    ",
"                  `.l <.Y.3.a a j.j.8 7 j.W.v.b.b.v.F.A.G.F.j.' ` <.F.b.m.3.b.b.L.c.Z.E.,.3.@ k.s.$ G.Q.<.l `.                  ",
"                x.j y.U.b.Q.7 7 !.G.1.v.K.F.Z.H.v.D.B.c l.G.8Xv _ a.R.F.= = F.J.8Xv _ d.J.E.,.4.t G.).y 4.y.l x.                ",
"              `.9.j 2.L.H.b.G.y z.G.J.n.F.B.b a.P.D.g ; >./.>.qXsX3 8X8Xb _ Z.8X6.` V.c.G.b.W.1.7 R.t 6 U.Y.e.k `.              ",
"              9.8.Q.,.7 H.H.b.b.v.b.v.b.F.y.' _ a.8X6.X.M.'.p yXdXwXr u rXrXe >.rXB.8Xn.v.b.b.H.,.6 s ~.<.7 4.8.9.              ",
"            t.h s.b.G.p + v.L.G.b.b.b.b.b.F.>.qXtXr P rXX.c wXdXpXsXtX' ' qX' fXwX>.K.v.b.b.v.b.H.U.4.z.s s p v.w.0.            ",
"          t.j L.7 @ 1.s e 4.G.b.b.b.b.b.b.b.P.>.yXpXqXqXtXaXdXX.^ X.dXaXfX@.kXsXv a.b.b.b.b.b.b.v.U.1.6 b.8 L.s.3.7._.          ",
"          9.8.h.H.7 ,.R.E.G.v.b.b.b.b.b.b.v.b.'.M.dXuXM.pXtXpX( ( ^ pXiXdXxXzXaX-.9Xn.v.b.b.b.b.b.v.U.3.6 y Y.v.8 l.9.          ",
"        r.r.t + ~./.6 1.J.b.b.b.b.b.b.b.b.v.G.(.x _ 9 z E E N.- ^ ) iXaXsXeX! _ 8 5.p.I.b.b.b.b.b.b.v.T.v.H.T.s # a 8._.        ",
"      x.9.3.1.f 8 ,.1.H.b.b.b.b.b.b.b.b.v.K.S.t J |.&X3X$X+X%X;Xw qXsXwXb V.V.E XXS w 2.U.v.b.b.b.b.b.v.H.b.6 y J.s 3.7.`.      ",
"      w.d G.H.Q.1.o v.H.v.b.b.b.b.b.b.v.L.g.0 W hX:XOXOX+X$XOX$X7XF M |.|.%X1X>X$X3XhXM =.U.v.b.b.b.b.b.L.j.1.U.G.L.G.7.w.      ",
"      k 4.H.b.G.v.4.H.v.b.b.b.b.b.b.b.G.S.0 #X3X X>X<X+XXX[.{.OX1X2Xw @X<X@XOXOXOXOX+XhXq g.G.v.b.b.b.b.v.G.K.v.b.b.H.4.l       ",
"    r.j b.b.b.b.b.J.b.b.b.b.b.b.b.b.b.P.e W 4XoX<X XZ Z Z D D Z Z  X XR 2X>X+XoXoXoXOX2XR ;.!.v.v.b.b.b.b.b.b.b.b.b.b.G.7.r.    ",
"    9.3.H.b.b.b.b.v.b.b.b.b.b.b.b.b.U.;.S 2XoX+XD A N.&X>X>X>X>XoXD Z i T Z D A A A A H n , p.U.G.v.b.b.b.b.b.b.b.b.b.H.q.9.    ",
"  x.j d.G.b.b.b.b.b.b.b.b.b.b.b.b.v.D.u #X+X+XoXH <X<XoX>X<XoX{. X+XR w [.<XOXOX$X>X1X>XOX*XJ p F.K.v.b.b.b.b.b.b.b.b.G.z.j t.  ",
"  r.7.b.b.b.b.b.b.b.b.b.b.b.b.b.h.E.;.S 2XoXOX+X>XoXoX1X XG H H D D [.A Z  X1X1XOXoX[.T T {.XXm 2 C.K.v.b.b.b.b.b.b.b.b.b.7.r.  ",
"  9.8.H.b.b.b.b.b.b.b.b.b.b.b.b.R.p.0 *X$XOXOXoXOX3X>XT T K K F D 1 2 3 C q q [.A q % 2 q & % 2 m i b.G.b.b.v.b.b.b.b.b.H.1.9.  ",
"  9.4.H.b.b.b.b.b.b.b.b.b.b.v.T.:.< .X<XoXOXoX<X$X[.R C < n ! ~ jXnXbXQ A 2 i G < 1 6X6XQ cXvXE 1 & x U.v.b.b.b.b.b.b.b.G.s.9.  ",
"t.j m.G.v.b.b.b.b.b.b.b.b.v.R.=.M hX<XoXOXOX$XOXD A 3 2 ! mX~ * * ~ BXBXCXnXW 3 Q NXMXY * Y CXBXNX! & :.U.b.b.b.b.b.b.v.G.z.j t.",
"t.7.v.G.b.b.b.b.b.b.b.b.b.K.i.M hX+XoXOXOX$XoXq q i Q NXBX~ . U ! X ~ BXBXBXnXY BXBXX o ! Y o BXBXBXMXp S.b.b.b.b.b.b.b.b.v.7.t.",
"w.7.b.b.b.b.b.b.v.b.b.b.b.D.p #X>XoXOXOXOXOXOX[.T 0 ! BXBXI . * . . ! BXBXBXnXVXBXBX. O O . * BXBXBXZXd C.b.b.b.b.b.b.b.b.G.8.w.",
"w.8.G.b.b.b.b.b.b.b.b.b.H.i.A 2XoXOXOXOXOXOXOX<X1X2XK R nXNX* . X U VXBXNXvX* 5XnXCXcXO . I nXnXbX! , S.n.b.b.b.b.b.b.b.b.G.8.0.",
"0.8.G.b.b.b.b.b.b.b.b.v.I.s W :XOXOXOXOXOX@XOXOXOX+X[.3 2 #X5X! 5XbXbXQ G < i B.K H jX*XR 6X*XK 1 2 -.U.v.b.b.b.b.b.b.b.b.G.8.0.",
"0.8.G.b.b.b.b.b.b.b.b.b.f.i &XoXOXOXOXOXOXOXOXOXOX+X+XT N.C C D D q 3 3 C G oX1XhX4XB.:X4X:X4X#X3 C.H.v.b.b.b.b.b.b.b.b.b.G.8.0.",
"0.8.G.b.b.b.b.b.b.b.b.J.;.Z 3XoXOXOXOX+XOXOXOXOXOXOXOX<X<X+XOX<X>X XZ A oX1X<XN.A T {.oX[.G G u g.K.b.b.b.b.b.b.b.b.b.b.b.G.8.0.",
"0.1.G.b.b.b.v.b.b.b.v.T.2.R <XOXOXOXOXOXOX+XOXOXOXOXOXOXOXOX&XN.D D H >X$XoX+X#XG Z A Z G T 2 p.!.z.b.b.b.b.b.b.b.b.b.b.b.G.8.0.",
"0.8.G.v.b.T.E.L.v.b.n.D.<.W $XOXOXOXOXOXOXOXOXOXOXOXOXOXOXOXOXG N.&X<XOXOXOXOXOX<X1X>X>X<X1X&X0 f.G.b.b.b.b.v.b.H.b.G.b.b.G.8.0.",
"w.7.b.U.n.1.e 8.H.b.b.S.g #XOXOXOXOXOXOXOXOXOXOXOXOXOXOXOXOXOX<X<XOXOXOXOXOXOXOXOXOXOXOXOXoX3XW y T.b.b.b.b.b.G.a z.n.v.H.G.<.w.",
"t.7.G.j.# 8 t 4.L.b.n.S.g #X$XOXOXOXOXOXOXOXOXoXOX1X,X1X4X<X+XOXOXOXoXoXOXOXOXOXOXOXOXOXOX$XoX&Xg D.b.b.b.v.H.e.8 b.8 H.4.s.8.w.",
"t.7.v.6 j.~.!.Q.c.v.b.f.g &XOXOXOX+XOXOXOXOXoX<X:XF G D F N.}.=X,X,X1X1X>X+X+X+XoXoXOXOXoX$X1X1X9 i.K.b.b.b.U.s p v.9 /.7 <.w.t.",
"  9.z.e a z.j.1.v.G.b.f.i &X$XOXOXOXOXOXOXOXOX=Xn [ O. . .} V B S A F F N.}.:X=X:X,X,X,X=X].F m | B p.b.b.v.T.z.# 6 8 p e z.9.  ",
"  9.y.J.a s 7 O t U.b.D.u *XOXOXOXOXOXOXOXOX:XS ..%.] { } } O.O.O.| [ } { V B m L S S V W { | $.&.- C.b.b.b.G.1.7 p s.7 m.l.9.  ",
"  r.j U.v.t y : s J.b.T.s W >XOX+XOXOXOXoX<X-X- &.+.o.+.o.} { ] ] { }  . .| | | [ [ [ [ | o.} ] M p.H.b.b.J.j.@ G.y J.Q.H.j w.  ",
"  t.7.z.t f z.e I.U.b.H.:.Z 3XoXOXOXOXOX<X[.@XJ - } } { }  . .#.#.+.o.} ] ] ] N N ] N ] { { o./ =.^.v.b.v.T.p 7 p # d.H.k.j x.  ",
"    9.q.Y./.t 4.!.<.b.n.S.i &X$XOXOXOXoX>X[.q 1XN.N.].N.N.F Z m V { } O.#.#.$.$.$.$.#.#.%.$.&./ :.F.b.b.J.4.7 Q.y d 8 v.l.9.    ",
"    r.7.H.d.6 1.8 5 1.R.H.;.M gX1XoXOXOXoX1X{.q  X3X<X<X1X1X,X=X}.N.F S m m B V B V L V - B m ;.P.v.b.v.E.7 4.s.8 ).q.z.7.r.    ",
"      l v.3.: ,.G.<.o G.G.I.;.q W &X3X<X$XoX<X+X XoXoXoXOXoXOXOX+X<X1X:X:X=X}.}.=X7XXXu =.C.A.D.b.v.v.K.G.5 7 + n.l.> v.k       ",
"      w.7.H.a b.y e p 7 E.n.R.f.a g J J .X*X&X3X3X<X<X<X$X$X$X+X+XOX+X>X<X3X3X&X.XZ 4 g.E.c.b.b.b.b.H.j.7 <.y s 7 # v.e.0.      ",
"      `.l v.d.O s W.!.e y E.v.G.I.f.;.2.<.g i Z J J W J W W .X.X.X.X.XW W J Z g <.i.I.L.v.b.b.b.b.v.T.<.# b.y R.s.d.v.l x.      ",
"        r.h Q.p 1.U.!.3.O 8.~.b.v.b.H.I.H.S.p.d.;.5.2.2.<.f d d d d f <.2.2.i.f.U.L.v.b.b.b.b.v.b.E.b.J.s.o y E.H.R.h r.        ",
"          k 3.R.z.E.f # b.8 e U.J.v.b.v.b.b.b.L.H.J.T.I.D.D.D.D.D.D.D.D.T.T.G.b.b.v.b.b.b.b.v.L.T.e 4.K.U.b.> s Q.1.k           ",
"          `.h z.~.p @ L.).s @ 6 b.U.v.b.b.b.b.b.v.b.b.v.b.b.b.b.b.b.b.b.v.b.b.b.b.b.b.b.b.v.G.H.9 y v.v.b.U.v.m.h.l _.          ",
"            w.h G.s.v./.t o ~.4.: H.L.v.b.b.b.b.b.b.b.b.b.b.b.b.b.b.b.b.b.b.b.b.b.b.b.b.v.J.R.<.6 J.: 4.H.v.H.J.h r.            ",
"              0.d T.Q.y t s.@ T.y + T.G.b.b.b.b.b.b.b.b.b.b.b.b.b.b.b.b.b.b.b.b.b.b.b.v.J.d.6 8 7 + d.R.v.b.H.j 9.              ",
"              x.k 7.Q.y 8 /.v.p p t y T.b.b.b.b.v.b.b.b.b.b.b.b.b.v.b.b.b.v.b.b.b.b.b.G.b.: 4.b.8 6 ,.H.b.I.<.k `.              ",
"                `.l 1.~.t 6 !.7 s.E.6 z.G.v.H.G.b.G.b.G.L.b.v.b.b.b.b.b.H.T.b.G.T.b.v.T.<.e !.E.s 3.7 3.Q.<.k `.                ",
"                  `.l 8.Y.H.t 5 ).G.: z.b.R.1.8 W.z.b.v.z.H.H.H.v.H.G.H.j.a b.b.6 s H.L.j.: J.!.5 3.Q.G.1.k x.                  ",
"                    `.l d U.H.t 8 5 ,.U.G.J.+ a H.# 4.7 8 7 j.k.J.y.j.y 7 p z.8 s 3.G.G.J.s 5 > y Y.L.j l x.                    ",
"                      x.0.h v.Y.<.3.U.v.E.a + 4.8 7 <.y E.v.,.@ T.5 a t v.b.4.9 p t t b.G.K.1.3.Q.z.h 0.`.                      ",
"                          r.h 3.Y.Q.b.H.3.5 4.+ 8 1.,.5 7 s.4.+ j.# <.<.5 6 4.J.H.G.+ d.L.b.Q.U.1.h w.                          ",
"                            _.k h 4.G.Y.3.z.3.8 z.e t j.H.b.p 7 5 y 1.e <.).T.p t : 1.U.H.G.4.j 9._.                            ",
"                                w.j 7.4.H.Y.b.T.s.s y 8 ,.s.7 s.o b.e t 8 7 p z.<.b.Q.b.4.7.j w.                                ",
"                                  `.r.l j q.v.G.H.Y.H.1.e 4.4.b.4.H.3.k.j.4.G.T.R.v.3.j l _.`.                                  ",
"                                        w.k j 7.q.4.z.J.Y.H.Y.H.Y.G.U.H.L.b.s.q.7.j 9.r.                                        ",
"                                            _.r.9.9.7.7.7.8.8.8.8.8.8.7.7.j 9.9.r.t.                                            ",
"                                                    _.w.w.0.0.0.0.0.w.w.w.t.                                                    "
};
