/* XPM */
static char *_5d6d2573f344233de6f6bac9a32f6156j44vmPosIM6FoOx[] = {
/* columns rows colors chars-per-pixel */
"16 16 206 2 ",
"   c None",
".  c #2D661C",
"X  c #1A7E2B",
"o  c #216E22",
"O  c #216A24",
"+  c #277225",
"@  c #227626",
"#  c #257624",
"$  c #267724",
"%  c #227E26",
"&  c #257C25",
"*  c #267F26",
"=  c #277629",
"-  c #277F2D",
";  c #3B7D27",
":  c #337B3E",
">  c #4F5D4D",
",  c #50504F",
"<  c #535451",
"1  c #747946",
"2  c #7C7E46",
"3  c #68715F",
"4  c #754D71",
"5  c #696661",
"6  c #686966",
"7  c #747173",
"8  c #984538",
"9  c #A1413F",
"0  c #8D5F43",
"q  c #A04C41",
"w  c #A05442",
"e  c #876540",
"r  c #8B6441",
"t  c #8F664D",
"y  c #956346",
"u  c #13AE15",
"i  c #0CB214",
"p  c #1DBB1F",
"a  c #1E9B27",
"s  c #1E952B",
"d  c #268025",
"f  c #268026",
"g  c #248326",
"h  c #268425",
"j  c #268A27",
"k  c #288826",
"l  c #288B26",
"z  c #298B26",
"x  c #29802A",
"c  c #29882A",
"v  c #298F29",
"b  c #289029",
"n  c #2A9229",
"m  c #28932A",
"M  c #2B922A",
"N  c #2B9629",
"B  c #2C932E",
"V  c #2B942E",
"C  c #2C972E",
"Z  c #2D9E2A",
"A  c #2C9F2B",
"S  c #2C9B2E",
"D  c #2E9E2E",
"F  c #2C8737",
"G  c #2E8D32",
"H  c #2C8338",
"J  c #2D883A",
"K  c #2D8B3A",
"L  c #2C9133",
"P  c #2B9431",
"I  c #2E9C32",
"U  c #2E9B34",
"Y  c #2F9E35",
"T  c #2E9539",
"R  c #2F9539",
"E  c #309A34",
"W  c #309F35",
"Q  c #3E9836",
"!  c #30963C",
"~  c #30973C",
"^  c #30983A",
"/  c #309A3A",
"(  c #319C3A",
")  c #309A3C",
"_  c #2CA227",
"`  c #2FA92D",
"'  c #2AAE2E",
"]  c #30A52B",
"[  c #31A12E",
"{  c #20B922",
"}  c #24B129",
"|  c #23B32C",
" . c #2AB32D",
".. c #27B82C",
"X. c #22BF2F",
"o. c #2ABB2D",
"O. c #29BD2D",
"+. c #2BBF2F",
"@. c #38B326",
"#. c #36BC2C",
"$. c #2CA330",
"%. c #2FA033",
"&. c #2FA634",
"*. c #20AA36",
"=. c #30A035",
"-. c #30A334",
";. c #31A436",
":. c #30AB31",
">. c #31AB31",
",. c #30A834",
"<. c #31A834",
"1. c #32A934",
"2. c #32A03B",
"3. c #32A13B",
"4. c #32A33B",
"5. c #32A33C",
"6. c #32A23D",
"7. c #33A73C",
"8. c #27B132",
"9. c #2BB430",
"0. c #26BD33",
"q. c #2CBB30",
"w. c #32B132",
"e. c #32B233",
"r. c #31B530",
"t. c #31B833",
"y. c #33BA33",
"u. c #3DB830",
"i. c #3CBE34",
"p. c #7F900E",
"a. c #428828",
"s. c #4E9C35",
"d. c #48953A",
"f. c #4F903E",
"g. c #4B9F3B",
"h. c #5C933E",
"j. c #51993F",
"k. c #45B92F",
"l. c #54B624",
"z. c #57B624",
"x. c #48AC3B",
"c. c #26C42D",
"v. c #2AC62F",
"b. c #34C12F",
"n. c #23D32F",
"m. c #2DC732",
"M. c #2CC830",
"N. c #2CC930",
"B. c #29CE30",
"V. c #2DC934",
"C. c #35C330",
"Z. c #34C231",
"A. c #34C331",
"S. c #34C232",
"D. c #34C332",
"F. c #35C632",
"G. c #33C034",
"H. c #37C036",
"J. c #37C136",
"K. c #36CA33",
"L. c #37CA33",
"P. c #3AC139",
"I. c #3BCE3C",
"U. c #2BD330",
"Y. c #2CDB33",
"T. c #23D33B",
"R. c #34D236",
"E. c #30D23C",
"W. c #4B8844",
"Q. c #5C8D44",
"!. c #5D8E45",
"~. c #4C9E44",
"^. c #559043",
"/. c #519845",
"(. c #579F48",
"). c #6B8D46",
"_. c #6F834B",
"`. c #658C4C",
"'. c #708445",
"]. c #718849",
"[. c #669349",
"{. c #67964B",
"}. c #6D914A",
"|. c #769543",
" X c #748851",
".X c #7E8E59",
"XX c #6B9057",
"oX c #6E9D52",
"OX c #6F9F53",
"+X c #739350",
"@X c #55A441",
"#X c #59A747",
"$X c #5BA947",
"%X c #52A248",
"&X c #6BA24A",
"*X c #7A9B64",
"=X c #7BB877",
"-X c #9F852B",
";X c #B49024",
":X c #C78408",
">X c #F09C00",
",X c #808D58",
"<X c #8CA454",
"1X c #83A37A",
"2X c #B0C0A5",
"3X c #BDCCB2",
/* pixels */
"          F E P - G ^           ",
"      H d % q.8.X 0.9.= ~       ",
"    3.N v u.*.l.l._ k.n k (     ",
"  J d r.Y.p -X:X>X;X@.T.[ h J   ",
"  V A J.M.&.|.1 -X<XW.m.R.` S   ",
"T Z.J.M.}  X`.(.: . '.; u I.Z.T ",
"W Z.G...Q.).XX, 7 2X> 4 1Xp F.=.",
"1.L.c.d..Xh.*X< 6 3X3 5 =X{ L.1.",
"%.Z.O.Q.+XoX#X$Xj.a.&Xg.i P.Z.,.",
"L j  .{.oX{.r e 2 ].}.t s.X.# U ",
"5.& a @X.X_.0 y w q 9 8 i.s # 3.",
"  V g ' x.f.~.%X/.^.Q n.V.+ S   ",
"  2.] @ | U.N.o.q.B.Y.$.c b.)   ",
"    ( v M >.I y.t.A >.v k 7.    ",
"      ~ e.n o f O d Z w.)       ",
"          2.;.I %.W (           "
};
